<?xml version="1.0" encoding="UTF-8"?>
<!DOCTYPE svg PUBLIC "-//W3C//DTD SVG 1.1//EN" "http://www.w3.org/Graphics/SVG/1.1/DTD/svg11.dtd">
<!-- Creator: CorelDRAW 2021.5 (Evaluation Version) -->
<svg xmlns="http://www.w3.org/2000/svg" xml:space="preserve" width="350mm" height="180mm" version="1.1" style="shape-rendering:geometricPrecision; text-rendering:geometricPrecision; image-rendering:optimizeQuality; fill-rule:evenodd; clip-rule:evenodd"
viewBox="0 0 350 180"
 xmlns:xlink="http://www.w3.org/1999/xlink"
 xmlns:xodm="http://www.corel.com/coreldraw/odm/2003">
 <defs>
  <style type="text/css">
   <![CDATA[
    .str0 {stroke:#1F1B20;stroke-width:0.0762;stroke-miterlimit:22.9256}
    .fil1 {fill:#FEFEFE}
    .fil0 {fill:#2B2A29}
   ]]>
  </style>
 </defs>
 <g id="Layer_x0020_1">
  <metadata id="CorelCorpID_0Corel-Layer"/>
  <path class="fil0 str0" d="M224.4447 41.6905l40 0c2.75,0 5,2.25 5,5l0 10c0,2.75 -2.25,5 -5,5l-40 0c-2.75,0 -5,-2.25 -5,-5l0 -10c0,-2.75 2.25,-5 5,-5zm-133.5 0l40 0c2.75,0 5,2.25 5,5l0 10c0,2.75 -2.25,5 -5,5l-40 0c-2.75,0 -5,-2.25 -5,-5l0 -10c0,-2.75 2.25,-5 5,-5zm-8.8038 -10.2739l191.1076 0c2.4455,0 4.4462,2.0007 4.4462,4.4461l0 111.1077c0,2.4454 -2.0007,4.4462 -4.4462,4.4462l-191.1076 0c-2.4455,0 -4.4462,-2.0008 -4.4462,-4.4462l0 -111.1077c0,-2.4454 2.0007,-4.4461 4.4462,-4.4461z"/>
  <polygon class="fil1 str0" points="244.5146,82.8714 258.5146,82.8714 258.5146,96.8714 244.5146,96.8714 "/>
  <polygon class="fil1 str0" points="225.5146,82.8714 239.5146,82.8714 239.5146,96.8714 225.5146,96.8714 "/>
  <polygon class="fil1 str0" points="206.5146,82.8714 220.5146,82.8714 220.5146,96.8714 206.5146,96.8714 "/>
  <polygon class="fil1 str0" points="187.5146,82.8714 201.5146,82.8714 201.5146,96.8714 187.5146,96.8714 "/>
  <polygon class="fil1 str0" points="244.5146,101.8714 258.5146,101.8714 258.5146,115.8714 244.5146,115.8714 "/>
  <polygon class="fil1 str0" points="225.5146,101.8714 239.5146,101.8714 239.5146,115.8714 225.5146,115.8714 "/>
  <polygon class="fil1 str0" points="206.5146,101.8714 220.5146,101.8714 220.5146,115.8714 206.5146,115.8714 "/>
  <polygon class="fil1 str0" points="187.5146,101.8714 201.5146,101.8714 201.5146,115.8714 187.5146,115.8714 "/>
  <polygon class="fil1 str0" points="116.1677,82.9396 130.1677,82.9396 130.1677,96.9396 116.1677,96.9396 "/>
  <polygon class="fil1 str0" points="135.1677,101.9396 149.1677,101.9396 149.1677,115.9396 135.1677,115.9396 "/>
  <polygon class="fil1 str0" points="116.1677,101.9396 130.1677,101.9396 130.1677,115.9396 116.1677,115.9396 "/>
  <polygon class="fil1 str0" points="97.1677,101.9396 111.1677,101.9396 111.1677,115.9396 97.1677,115.9396 "/>
  <path class="fil1 str0" d="M239.2683 72.9893c0,1.712 1.388,3.1 3.1,3.1 1.712,0 3.1,-1.388 3.1,-3.1 0,-1.712 -1.388,-3.1 -3.1,-3.1 -1.712,0 -3.1,1.388 -3.1,3.1z"/>
  <path class="fil1 str0" d="M219.2683 72.9893c0,1.712 1.388,3.1 3.1,3.1 1.712,0 3.1,-1.388 3.1,-3.1 0,-1.712 -1.388,-3.1 -3.1,-3.1 -1.712,0 -3.1,1.388 -3.1,3.1z"/>
  <path class="fil1 str0" d="M229.2683 72.9893c0,1.712 1.388,3.1 3.1,3.1 1.712,0 3.1,-1.388 3.1,-3.1 0,-1.712 -1.388,-3.1 -3.1,-3.1 -1.712,0 -3.1,1.388 -3.1,3.1z"/>
  <path class="fil1 str0" d="M110.0677 72.9893c0,1.712 1.388,3.1 3.1,3.1 1.712,0 3.1,-1.388 3.1,-3.1 0,-1.712 -1.388,-3.1 -3.1,-3.1 -1.712,0 -3.1,1.388 -3.1,3.1z"/>
  <path class="fil1 str0" d="M120.0677 72.9893c0,1.712 1.388,3.1 3.1,3.1 1.712,0 3.1,-1.388 3.1,-3.1 0,-1.712 -1.388,-3.1 -3.1,-3.1 -1.712,0 -3.1,1.388 -3.1,3.1z"/>
  <path class="fil1 str0" d="M130.0677 72.9893c0,1.712 1.388,3.1 3.1,3.1 1.712,0 3.1,-1.388 3.1,-3.1 0,-1.712 -1.388,-3.1 -3.1,-3.1 -1.712,0 -3.1,1.388 -3.1,3.1z"/>
 </g>
</svg>
