<?xml version="1.0" encoding="UTF-8"?>
<!DOCTYPE svg PUBLIC "-//W3C//DTD SVG 1.1//EN" "http://www.w3.org/Graphics/SVG/1.1/DTD/svg11.dtd">
<!-- Creator: CorelDRAW 2021.5 (Evaluation Version) -->
<svg xmlns="http://www.w3.org/2000/svg" xml:space="preserve" width="201mm" height="121mm" version="1.1" style="shape-rendering:geometricPrecision; text-rendering:geometricPrecision; image-rendering:optimizeQuality; fill-rule:evenodd; clip-rule:evenodd"
viewBox="0 0 201 121"
 xmlns:xlink="http://www.w3.org/1999/xlink"
 xmlns:xodm="http://www.corel.com/coreldraw/odm/2003">
 <defs>
  <style type="text/css">
   <![CDATA[
    .str0 {stroke:#1F1B20;stroke-width:0.0762;stroke-miterlimit:22.9256}
    .fil1 {fill:#FEFEFE}
    .fil0 {fill:#2B2A29}
   ]]>
  </style>
 </defs>
 <g id="Layer_x0020_1">
  <metadata id="CorelCorpID_0Corel-Layer"/>
  <g id="_1533339233584">
   <path class="fil0 str0" d="M147.25 10.8106l40 0c2.75,0 5,2.25 5,5l0 10c0,2.75 -2.25,5 -5,5l-40 0c-2.75,0 -5,-2.25 -5,-5l0 -10c0,-2.75 2.25,-5 5,-5zm-133.5 0l40 0c2.75,0 5,2.25 5,5l0 10c0,2.75 -2.25,5 -5,5l-40 0c-2.75,0 -5,-2.25 -5,-5l0 -10c0,-2.75 2.25,-5 5,-5zm-8.8038 -10.2739l191.1076 0c2.4455,0 4.4462,2.0007 4.4462,4.4461l0 111.1077c0,2.4454 -2.0007,4.4462 -4.4462,4.4462l-191.1076 0c-2.4455,0 -4.4462,-2.0008 -4.4462,-4.4462l0 -111.1077c0,-2.4454 2.0007,-4.4461 4.4462,-4.4461z"/>
   <polygon class="fil1 str0" points="167.3199,51.9915 181.3199,51.9915 181.3199,65.9915 167.3199,65.9915 "/>
   <polygon class="fil1 str0" points="148.3199,51.9915 162.3199,51.9915 162.3199,65.9915 148.3199,65.9915 "/>
   <polygon class="fil1 str0" points="129.3199,51.9915 143.3199,51.9915 143.3199,65.9915 129.3199,65.9915 "/>
   <polygon class="fil1 str0" points="110.3199,51.9915 124.3199,51.9915 124.3199,65.9915 110.3199,65.9915 "/>
   <polygon class="fil1 str0" points="167.3199,70.9915 181.3199,70.9915 181.3199,84.9915 167.3199,84.9915 "/>
   <polygon class="fil1 str0" points="148.3199,70.9915 162.3199,70.9915 162.3199,84.9915 148.3199,84.9915 "/>
   <polygon class="fil1 str0" points="129.3199,70.9915 143.3199,70.9915 143.3199,84.9915 129.3199,84.9915 "/>
   <polygon class="fil1 str0" points="110.3199,70.9915 124.3199,70.9915 124.3199,84.9915 110.3199,84.9915 "/>
   <polygon class="fil1 str0" points="38.973,52.0597 52.973,52.0597 52.973,66.0597 38.973,66.0597 "/>
   <polygon class="fil1 str0" points="57.973,71.0597 71.973,71.0597 71.973,85.0597 57.973,85.0597 "/>
   <polygon class="fil1 str0" points="38.973,71.0597 52.973,71.0597 52.973,85.0597 38.973,85.0597 "/>
   <polygon class="fil1 str0" points="19.973,71.0597 33.973,71.0597 33.973,85.0597 19.973,85.0597 "/>
   <path class="fil1 str0" d="M162.0736 42.1094c0,1.712 1.388,3.1 3.1,3.1 1.712,0 3.1,-1.388 3.1,-3.1 0,-1.712 -1.388,-3.1 -3.1,-3.1 -1.712,0 -3.1,1.388 -3.1,3.1z"/>
   <path class="fil1 str0" d="M142.0736 42.1094c0,1.712 1.388,3.1 3.1,3.1 1.712,0 3.1,-1.388 3.1,-3.1 0,-1.712 -1.388,-3.1 -3.1,-3.1 -1.712,0 -3.1,1.388 -3.1,3.1z"/>
   <path class="fil1 str0" d="M152.0736 42.1094c0,1.712 1.388,3.1 3.1,3.1 1.712,0 3.1,-1.388 3.1,-3.1 0,-1.712 -1.388,-3.1 -3.1,-3.1 -1.712,0 -3.1,1.388 -3.1,3.1z"/>
   <path class="fil1 str0" d="M32.873 42.1094c0,1.712 1.388,3.1 3.1,3.1 1.712,0 3.1,-1.388 3.1,-3.1 0,-1.712 -1.388,-3.1 -3.1,-3.1 -1.712,0 -3.1,1.388 -3.1,3.1z"/>
   <path class="fil1 str0" d="M42.873 42.1094c0,1.712 1.388,3.1 3.1,3.1 1.712,0 3.1,-1.388 3.1,-3.1 0,-1.712 -1.388,-3.1 -3.1,-3.1 -1.712,0 -3.1,1.388 -3.1,3.1z"/>
   <path class="fil1 str0" d="M52.873 42.1094c0,1.712 1.388,3.1 3.1,3.1 1.712,0 3.1,-1.388 3.1,-3.1 0,-1.712 -1.388,-3.1 -3.1,-3.1 -1.712,0 -3.1,1.388 -3.1,3.1z"/>
  </g>
 </g>
</svg>
